# xmcd
#
# Track frame offsets:
#	150
#	13657
#	27164
#	40671
#	54178
#	67685
#	81192
#
# Disc length: 1260 seconds
#
# Revision: 0
# Processed by: cddbd v1.5.2PL0 Copyright (c) Steve Scherf et al.
# Submitted via: EasyCDDAExtractor 16.0.6.1
#
DISCID=4404ea07
DTITLE=ZAS - Svente su UTENOS alumi
DYEAR=2003
DGENRE=Other
TTITLE0=gaivi daina (original version)
TTITLE1=gaivi daina (Utenos alus version)
TTITLE2=gaivi daina (dance version)
TTITLE3=gaivi daina (city version)
TTITLE4=gaivi daina (rock version)
TTITLE5=gaivi daina (club mix)
TTITLE6=gaivi daina (karaoke)
EXTD=
EXTT0=
EXTT1=
EXTT2=
EXTT3=
EXTT4=
EXTT5=
EXTT6=
PLAYORDER=
